<mxfile host="app.diagrams.net" agent="Mozilla/5.0 (Windows NT 10.0; Win64; x64) AppleWebKit/537.36 (KHTML, like Gecko) Chrome/127.0.0.0 Safari/537.36" version="24.7.6">
  <diagram name="Page-1" id="1vea0BRkQrI_Xqs_IZSW">
    <mxGraphModel dx="1195" dy="578" grid="1" gridSize="10" guides="1" tooltips="1" connect="1" arrows="1" fold="1" page="1" pageScale="1" pageWidth="827" pageHeight="1169" math="0" shadow="0">
      <root>
        <mxCell id="0" />
        <mxCell id="1" parent="0" />
        <mxCell id="FokrrxvagGkeB40d7ynf-37" style="edgeStyle=orthogonalEdgeStyle;rounded=0;orthogonalLoop=1;jettySize=auto;html=1;entryX=1;entryY=0.5;entryDx=0;entryDy=0;exitX=0.5;exitY=0;exitDx=0;exitDy=0;shape=link;" edge="1" parent="1" source="FokrrxvagGkeB40d7ynf-1" target="FokrrxvagGkeB40d7ynf-25">
          <mxGeometry relative="1" as="geometry" />
        </mxCell>
        <mxCell id="FokrrxvagGkeB40d7ynf-1" value="animal&lt;div&gt;&lt;br&gt;&lt;/div&gt;&lt;div&gt;id&lt;/div&gt;&lt;div&gt;nom&lt;/div&gt;&lt;div&gt;âge&lt;/div&gt;&lt;div&gt;&lt;b&gt;race_id&lt;/b&gt;&lt;/div&gt;&lt;div&gt;numéro de tatouage&lt;/div&gt;&lt;div&gt;stérilisation&lt;/div&gt;&lt;div&gt;vaccins&lt;/div&gt;&lt;div&gt;&lt;b&gt;refuge_id&lt;/b&gt;&lt;/div&gt;" style="rounded=0;whiteSpace=wrap;html=1;" vertex="1" parent="1">
          <mxGeometry x="350" y="287.5" width="130" height="182.5" as="geometry" />
        </mxCell>
        <mxCell id="FokrrxvagGkeB40d7ynf-2" value="adoptant&lt;div&gt;&lt;br&gt;&lt;/div&gt;&lt;div&gt;id&lt;/div&gt;&lt;div&gt;prénom&lt;/div&gt;&lt;div&gt;nom&amp;nbsp;&lt;/div&gt;&lt;div&gt;date de naissance&lt;/div&gt;&lt;div&gt;adresse&lt;/div&gt;" style="rounded=0;whiteSpace=wrap;html=1;" vertex="1" parent="1">
          <mxGeometry x="707" y="323.75" width="120" height="110" as="geometry" />
        </mxCell>
        <mxCell id="FokrrxvagGkeB40d7ynf-11" value="espèce&lt;div&gt;&lt;br&gt;&lt;/div&gt;&lt;div&gt;id&lt;/div&gt;&lt;div&gt;nom&lt;/div&gt;" style="rounded=0;whiteSpace=wrap;html=1;" vertex="1" parent="1">
          <mxGeometry x="360" y="690" width="130" height="80" as="geometry" />
        </mxCell>
        <mxCell id="FokrrxvagGkeB40d7ynf-25" value="reccueilli&lt;div&gt;&lt;br&gt;&lt;div&gt;date heure&lt;/div&gt;&lt;/div&gt;&lt;div&gt;&lt;b&gt;refuge_id&lt;/b&gt;&lt;/div&gt;&lt;div&gt;&lt;b&gt;animal_id&lt;/b&gt;&lt;/div&gt;" style="rounded=0;whiteSpace=wrap;html=1;" vertex="1" parent="1">
          <mxGeometry x="190" y="160" width="120" height="70" as="geometry" />
        </mxCell>
        <mxCell id="FokrrxvagGkeB40d7ynf-28" value="adoption&lt;div&gt;&lt;br&gt;&lt;/div&gt;&lt;div&gt;&lt;b&gt;animal_id&lt;/b&gt;&lt;/div&gt;&lt;div&gt;&lt;b&gt;adoptant_id&lt;/b&gt;&lt;/div&gt;&lt;div&gt;date&lt;/div&gt;" style="rounded=0;whiteSpace=wrap;html=1;" vertex="1" parent="1">
          <mxGeometry x="520" y="240" width="120" height="90" as="geometry" />
        </mxCell>
        <mxCell id="FokrrxvagGkeB40d7ynf-29" style="edgeStyle=orthogonalEdgeStyle;rounded=0;orthogonalLoop=1;jettySize=auto;html=1;entryX=0.315;entryY=0.99;entryDx=0;entryDy=0;entryPerimeter=0;shape=link;" edge="1" parent="1" source="FokrrxvagGkeB40d7ynf-1" target="FokrrxvagGkeB40d7ynf-28">
          <mxGeometry relative="1" as="geometry" />
        </mxCell>
        <mxCell id="FokrrxvagGkeB40d7ynf-30" style="edgeStyle=orthogonalEdgeStyle;rounded=0;orthogonalLoop=1;jettySize=auto;html=1;entryX=0.625;entryY=1.006;entryDx=0;entryDy=0;entryPerimeter=0;shape=link;" edge="1" parent="1" source="FokrrxvagGkeB40d7ynf-2" target="FokrrxvagGkeB40d7ynf-28">
          <mxGeometry relative="1" as="geometry" />
        </mxCell>
        <mxCell id="FokrrxvagGkeB40d7ynf-38" style="edgeStyle=orthogonalEdgeStyle;rounded=0;orthogonalLoop=1;jettySize=auto;html=1;entryX=0;entryY=0.5;entryDx=0;entryDy=0;exitX=0.5;exitY=0;exitDx=0;exitDy=0;shape=link;" edge="1" parent="1" source="FokrrxvagGkeB40d7ynf-33" target="FokrrxvagGkeB40d7ynf-25">
          <mxGeometry relative="1" as="geometry" />
        </mxCell>
        <mxCell id="FokrrxvagGkeB40d7ynf-33" value="refuge&lt;div&gt;&lt;br&gt;&lt;/div&gt;&lt;div&gt;id&lt;/div&gt;&lt;div&gt;localisation&lt;/div&gt;&lt;div&gt;capacité&lt;/div&gt;" style="rounded=0;whiteSpace=wrap;html=1;" vertex="1" parent="1">
          <mxGeometry x="50" y="290" width="120" height="180" as="geometry" />
        </mxCell>
        <mxCell id="FokrrxvagGkeB40d7ynf-39" style="edgeStyle=orthogonalEdgeStyle;rounded=0;orthogonalLoop=1;jettySize=auto;html=1;shape=link;" edge="1" parent="1" source="FokrrxvagGkeB40d7ynf-33">
          <mxGeometry relative="1" as="geometry">
            <mxPoint x="350" y="380" as="targetPoint" />
          </mxGeometry>
        </mxCell>
        <mxCell id="FokrrxvagGkeB40d7ynf-42" value="0,n" style="text;strokeColor=none;align=center;fillColor=none;html=1;verticalAlign=middle;whiteSpace=wrap;rounded=0;" vertex="1" parent="1">
          <mxGeometry x="170" y="340" width="60" height="30" as="geometry" />
        </mxCell>
        <mxCell id="FokrrxvagGkeB40d7ynf-43" value="n,1" style="text;strokeColor=none;align=center;fillColor=none;html=1;verticalAlign=middle;whiteSpace=wrap;rounded=0;" vertex="1" parent="1">
          <mxGeometry x="647" y="340" width="60" height="30" as="geometry" />
        </mxCell>
        <mxCell id="FokrrxvagGkeB40d7ynf-44" value="1,n" style="text;strokeColor=none;align=center;fillColor=none;html=1;verticalAlign=middle;whiteSpace=wrap;rounded=0;" vertex="1" parent="1">
          <mxGeometry x="430" y="660" width="60" height="30" as="geometry" />
        </mxCell>
        <mxCell id="FokrrxvagGkeB40d7ynf-45" value="1,1" style="text;strokeColor=none;align=center;fillColor=none;html=1;verticalAlign=middle;whiteSpace=wrap;rounded=0;" vertex="1" parent="1">
          <mxGeometry x="290" y="340" width="60" height="30" as="geometry" />
        </mxCell>
        <mxCell id="FokrrxvagGkeB40d7ynf-46" value="1,1" style="text;strokeColor=none;align=center;fillColor=none;html=1;verticalAlign=middle;whiteSpace=wrap;rounded=0;" vertex="1" parent="1">
          <mxGeometry x="440" y="470" width="60" height="30" as="geometry" />
        </mxCell>
        <mxCell id="FokrrxvagGkeB40d7ynf-47" value="0,1" style="text;strokeColor=none;align=center;fillColor=none;html=1;verticalAlign=middle;whiteSpace=wrap;rounded=0;" vertex="1" parent="1">
          <mxGeometry x="480" y="350" width="60" height="30" as="geometry" />
        </mxCell>
        <mxCell id="FokrrxvagGkeB40d7ynf-52" style="edgeStyle=orthogonalEdgeStyle;rounded=0;orthogonalLoop=1;jettySize=auto;html=1;entryX=0.544;entryY=1.015;entryDx=0;entryDy=0;entryPerimeter=0;shape=link;" edge="1" parent="1" source="FokrrxvagGkeB40d7ynf-48" target="FokrrxvagGkeB40d7ynf-1">
          <mxGeometry relative="1" as="geometry">
            <mxPoint x="410" y="520" as="targetPoint" />
          </mxGeometry>
        </mxCell>
        <mxCell id="FokrrxvagGkeB40d7ynf-48" value="race&lt;div&gt;&lt;br&gt;&lt;/div&gt;&lt;div&gt;id&lt;/div&gt;&lt;div&gt;nom&lt;/div&gt;&lt;div&gt;espèce_id&lt;/div&gt;" style="rounded=0;whiteSpace=wrap;html=1;" vertex="1" parent="1">
          <mxGeometry x="360" y="547" width="120" height="75" as="geometry" />
        </mxCell>
        <mxCell id="FokrrxvagGkeB40d7ynf-49" style="edgeStyle=orthogonalEdgeStyle;rounded=0;orthogonalLoop=1;jettySize=auto;html=1;shape=link;" edge="1" parent="1" source="FokrrxvagGkeB40d7ynf-48">
          <mxGeometry relative="1" as="geometry">
            <mxPoint x="420" y="690" as="targetPoint" />
          </mxGeometry>
        </mxCell>
        <mxCell id="FokrrxvagGkeB40d7ynf-51" value="1,1" style="text;strokeColor=none;align=center;fillColor=none;html=1;verticalAlign=middle;whiteSpace=wrap;rounded=0;" vertex="1" parent="1">
          <mxGeometry x="430" y="622" width="60" height="30" as="geometry" />
        </mxCell>
        <mxCell id="FokrrxvagGkeB40d7ynf-53" value="0,n" style="text;strokeColor=none;align=center;fillColor=none;html=1;verticalAlign=middle;whiteSpace=wrap;rounded=0;" vertex="1" parent="1">
          <mxGeometry x="440" y="517" width="60" height="30" as="geometry" />
        </mxCell>
      </root>
    </mxGraphModel>
  </diagram>
</mxfile>
